<svg xmlns="http://www.w3.org/2000/svg" fill-rule="evenodd" viewBox="0 0 100 100">
    <path d="M74.94 66.43a29.79 29.79 0 0 0 0-32.86l12.12-12.12a1.5 1.5 0 0 0 0-2.12l-6.39-6.39a1.5 1.5 0 0 0-2.12 0L66.43 25.06a29.79 29.79 0 0 0-32.86 0L21.45 12.94a1.5 1.5 0 0 0-2.12 0l-6.39 6.39a1.5 1.5 0 0 0 0 2.12l12.12 12.12a29.79 29.79 0 0 0 0 32.86L12.94 78.55a1.5 1.5 0 0 0 0 2.12l6.39 6.39a1.5 1.5 0 0 0 2.12 0l12.12-12.12a29.79 29.79 0 0 0 32.86 0l12.12 12.12a1.5 1.5 0 0 0 2.12 0l6.39-6.39a1.5 1.5 0 0 0 0-2.12Zm4.67 17.45L67.67 71.94a1.5 1.5 0 0 0-1.94-.15 26.79 26.79 0 0 1-31.45 0 1.5 1.5 0 0 0-1.94.15L20.39 83.88l-4.27-4.27 11.94-11.94a1.5 1.5 0 0 0 .15-1.94 26.79 26.79 0 0 1 0-31.45 1.5 1.5 0 0 0-.15-1.94L16.12 20.39l4.27-4.27 11.94 11.94a1.5 1.5 0 0 0 1.94.15 26.79 26.79 0 0 1 31.45 0 1.5 1.5 0 0 0 1.94-.15l11.95-11.94 4.27 4.27-11.94 11.94a1.5 1.5 0 0 0-.15 1.94 26.79 26.79 0 0 1 0 31.45 1.5 1.5 0 0 0 .15 1.94l11.94 11.95Z"/>
    <path d="M50 29.16A20.84 20.84 0 1 0 70.84 50 20.87 20.87 0 0 0 50 29.16Zm0 38.69A17.84 17.84 0 1 1 67.84 50 17.86 17.86 0 0 1 50 67.84Z"/>
</svg>
