<svg xmlns="http://www.w3.org/2000/svg" fill-rule="evenodd" viewBox="0 0 100 100">
    <path d="M95.9 27.729H83.547v-5.703a1.5 1.5 0 0 0-1.5-1.5h-17.06a1.5 1.5 0 0 0-1.5 1.5v5.703H37.26v-5.703a1.5 1.5 0 0 0-1.5-1.5H18.7a1.5 1.5 0 0 0-1.5 1.5v5.703H4.1a1.5 1.5 0 0 0-1.5 1.5v51.975a1.5 1.5 0 0 0 1.5 1.5h91.8a1.5 1.5 0 0 0 1.5-1.5V29.229a1.5 1.5 0 0 0-1.5-1.5zm-29.413-4.203h14.06v4.203h-14.06v-4.203zm-46.287 0h14.06v4.203H20.2v-4.203zm74.2 56.178H5.6V30.729h88.8v48.975z"/>
    <path d="M18.7 56.717h17.06a1.5 1.5 0 1 0 0-3H18.7a1.5 1.5 0 1 0 0 3zm46.287 0h7.029v7.03a1.5 1.5 0 0 0 3 0v-7.03h7.03a1.5 1.5 0 0 0 0-3h-7.03v-7.03a1.5 1.5 0 1 0-3 0v7.03h-7.029a1.5 1.5 0 0 0 0 3z"/>
</svg>
